<?xml version="1.0" encoding="UTF-8"?>
<svg id="Vrstva_2" data-name="Vrstva 2" xmlns="http://www.w3.org/2000/svg" viewBox="0 0 4494.32 1608.56">
  <defs>
    <style>
      .cls-1 {
        fill: #f28d29;
      }

      .cls-1, .cls-2 {
        stroke: #fff;
        stroke-miterlimit: 10;
        stroke-width: 17px;
      }

      .cls-2 {
        fill: #154387;
      }
    </style>
  </defs>
  <g id="Vrstva_1-2" data-name="Vrstva 1">
    <g>
      <path class="cls-2" d="m1417.74,8.5c3.43.7,6.83,1.54,10.36,1.73,8.36.45,16.44,2.45,24.38,4.93,44.01,13.77,74.41,47.36,87.07,84.24,4.07,11.86,6.72,24,7.11,36.57.08,2.56.15,5.12.17,7.68.03,3.52.01,7.04.01,10.56,0,281.54,0,563.08-.02,844.61,0,3.83.36,7.67-.31,11.49-.11.6-1.31,1.9-1.88,1.94-.64.05-1.27.15-1.91.16-1.92.03-3.84.04-5.76.04-31.99,0-63.99,0-95.98,0-15.04,0-30.07.01-45.11-.01-1.91,0-3.82-.18-5.73-.28-.56-.03-1.92-1.3-1.99-1.84-.12-.95-.31-1.9-.32-2.85-.05-3.52-.04-7.04-.04-10.56,0-271.3,0-542.6,0-813.9,0-3.84-.04-7.68-.12-11.51-.01-.62-.2-1.3-.53-1.82-.32-.5-.86-.95-1.41-1.19-.56-.25-1.24-.28-1.86-.29-3.2-.04-6.4-.05-9.6-.05-397.05,0-794.1,0-1191.16,0-3.2,0-6.4.02-9.6.06-1.71.02-3.1,1.32-3.18,2.89-.05.96-.13,1.91-.14,2.87-.02,2.56-.01,5.12-.01,7.68,0,414.63,0,829.26,0,1243.89,0,3.84.12,7.67.19,11.51,0,.55,1.34,1.86,1.93,1.92.63.07,1.25.3,1.87.31,3.52.05,7.04.07,10.56.07,231.96,0,463.92,0,695.88.02,3.82,0,7.67-.36,11.47.35.53.1,1.08.68,1.4,1.18.33.51.51,1.2.53,1.81.09,2.24.1,4.48.1,6.72,0,46.71,0,93.42,0,140.13,0,3.52.05,7.04-.51,10.52H137.14c-.45-.42-.84-1.09-1.37-1.23-1.54-.39-3.13-.6-4.71-.83-7.27-1.07-14.52-2.26-21.58-4.29-26.83-7.71-49.4-22.14-67.23-43.65-17.59-21.22-27.85-45.59-30.31-73.14-.11-1.27-.26-2.55-.52-3.79-.2-.94-.7-1.78-1.44-2.43-.48-.42-.99-.8-1.48-1.2,0-367.33,0-734.66,0-1102,.86-.44,1.76-.86,2.73-.64,1.55.36,3.13.72,4.6,1.31,7.7,3.11,15.38,6.28,23.05,9.46,1.18.49,2.34,1.05,3.41,1.74.47.3.78.97.98,1.54.23.66-.86,2.05-1.49,2.16-3.17.56-6.37.2-9.55.33-1.26.05-2.53.18-3.78.33-.71.08-1.17.54-1.31,1.25-.11.54.12,1.21.77,1.49,4.12,1.76,8.44,2.93,12.73,4.2,1.6.47,3.23.38,4.57-.66,4.05-3.14,8.34-5.91,12.73-8.54,1.08-.65,2.02-1.55,2.96-2.41,1.52-1.37,2.08-4.37,1.13-6.22-.58-1.13-1.16-2.3-1.96-3.28-2.03-2.47-4.13-4.88-6.3-7.22-4.14-4.45-8.38-8.8-12.51-13.26-3.69-4-7.18-8.17-10.24-12.68-4.79-7.08-7.32-14.85-7.1-23.46.1-3.84.28-7.66.85-11.47,1.17-7.9,2.22-15.83,3.39-23.73.23-1.56.81-3.07,1.2-4.62.21-.85,1.46-1.28,2.35-.65,7.84,5.52,15.62,11.13,23.17,17.04.25.19.42.48.65.7.46.44.48,2.12.02,2.64-.64.73-1.38,1.37-2.42,1.14-4.05-.89-8.08-1.86-12.14-2.72-.79-.17-1.25.3-1.17.83.04.31.1.68.29.9,2.54,2.96,5.69,5.16,9.18,6.8,3.85,1.8,7.81,2.45,12.1,1.11,4.32-1.35,8.35-3.15,12.08-5.68,2.03-1.37,2.79-3.42,2.9-5.76.03-.63-.1-1.27-.22-1.9-.35-1.91-1.17-3.62-2.08-5.33-5.54-10.45-11-20.93-16.53-31.39-1.5-2.83-2.94-5.68-3.9-8.74-.38-1.21-.73-2.46-.9-3.72-.84-6.13-.39-12.12,2.14-17.86.39-.88.82-1.74,1.18-2.62,3.03-7.39,6.05-14.78,9.05-22.18,1.08-2.66,2.09-5.36,3.17-8.02.48-1.18,1.06-2.33,1.59-3.49.55-1.19,2.16-1.3,3.07-.17,5.99,7.49,11.97,14.98,17.94,22.48.2.25.31.56.49.82.98,1.47.99,1.64-.28,3.36-.47.64-1.88,1.02-2.53.67-1.13-.59-2.28-1.15-3.38-1.8-3.02-1.79-6.02-3.62-9.02-5.46-.67-.41-1.2-.51-1.65-.04-.43.46-.63,1.16-.19,1.68,1.65,1.95,3.36,3.86,5.12,5.71,7.19,7.56,4.51,6.86,15.6,5.91,2.23-.19,4.47-.22,6.71-.31,2.25-.1,4.44-.47,6.6-1.12,1.65-.5,3.29-2.42,3.38-4.25.06-1.27.14-2.58-.09-3.81-.65-3.45-1.39-6.89-2.22-10.31-2.42-9.94-4.27-19.99-6.39-30-.86-4.08-.94-8.25-.69-12.42.24-3.93,1.48-7.51,3.47-10.85.98-1.64,2.1-3.21,3.25-4.74,1.93-2.55,3.96-5.02,5.9-7.56,5.24-6.86,10.43-13.76,15.68-20.62.77-1.01,1.65-1.94,2.58-2.8.56-.52,1.23-.47,1.63-.02.42.47.86.98,1.1,1.55,3.61,8.53,7.19,17.07,10.75,25.63.24.57.28,1.24.31,1.86.03.69-.31,1.22-.8,1.66-1.14,1.04-2.38,1.07-3.39.07-.68-.67-1.38-1.33-2.02-2.04-1.93-2.13-3.84-4.29-5.77-6.43-.47-.52-1.12-.73-1.58-.35-.5.42-.47,1.12-.3,1.79.88,3.47,2.55,6.57,4.69,9.37,5.07,6.67,11.8,9.59,20.17,8.37,1.96-.29,3.59-1.32,4.83-2.88,1.61-2.02,2.83-4.25,3.34-6.82.62-3.14,1.18-6.29,1.31-9.49.14-3.52.33-7.03.38-10.55.1-7.05.68-14.04,1.7-21.02.56-3.84,1.65-7.47,3.17-11.01,1.66-3.87,3.93-7.33,7.07-10.15,2.61-2.35,5.23-4.71,7.94-6.94,7.9-6.5,16.22-12.47,24.44-18.56.25-.19.59-.25.86-.41.83-.5,2.24-.07,2.35.73,1.39,9.48,2.8,18.96,4.16,28.45.13.94.02,1.91.01,2.86,0,.52-1.42,1.75-2.08,1.77-.99.02-2.01-.23-2.55-1.01-2.55-3.68-4.22-7.88-6.78-11.55-.43-.62-.91-.88-1.37-.53-.19.15-.2.6-.2.91-.01,4.57,1.31,8.81,3.28,12.88,2.2,4.54,5.82,7.62,10.43,9.4,3.27,1.26,6.68,2.22,10.23,2.42.95.05,1.94.08,2.86-.11.55-.12,1.22-.58,1.47-1.07.72-1.42,1.33-2.91,1.84-4.42,2.02-6.06,3.99-12.14,5.98-18.22,2.38-7.29,4.98-14.5,7.77-21.65,1.29-3.29,2.94-6.38,4.95-9.28,2.23-3.21,4.97-5.87,8.46-7.63,4.56-2.3,9.13-4.62,13.8-6.69,8.47-3.75,17.02-7.33,25.53-10.97.29-.12.61-.23.92-.25.31-.02.63.09.94.11.7.03,1.14.41,1.23,1.18.43,3.84-.14,7.66-.64,11.43-.75,5.71-1.38,11.43-1.87,17.16-.05.62-.27,1.23-.47,1.83-.1.29-.33.55-.5.82-.45.69-1.91,1.23-2.51.84-.51-.34-1.2-.68-1.4-1.19-1.04-2.68-1.94-5.4-2.62-8.21-.37-1.54-1.09-2.99-1.65-4.49-.24-.63-.75-.92-1.5-.73-.16.04-.28.5-.29.77-.07,4.79-.12,9.59-.16,14.38-.01,1.67.53,3.12,1.91,4.18,3.3,2.53,6.48,5.2,9.41,8.17.67.68,1.45,1.25,2.21,1.83.51.39,1.06.71,1.6,1.05,2.04,1.27,5.35.93,7.2-.64,1.98-1.68,3.46-3.75,4.85-5.91,5.69-8.88,11.37-17.77,17.04-26.67,1.2-1.89,2.38-3.79,3.57-5.68,5.11-8.12,12.69-12.49,21.94-13.94,4.73-.74,9.49-1.45,14.26-1.88,7.65-.7,15.18-2.26,22.86-2.68,1.63-.09,3.09-.75,4.5-1.53h1013.73Z"/>
      <path class="cls-2" d="m2659.95,8.5c-.23.59-.63,1.18-.67,1.78-.09,1.59-.02,3.2-.02,4.8,0,272.93,0,545.86,0,818.8,0,3.51-.13,7.03-.22,10.54-.03,1.19-1.3,2.46-2.42,2.54-.63.05-1.27.17-1.9.18-1.92.03-3.84.03-5.76.03-57.92,0-115.83,0-173.75,0-2.55,0-5.1-.15-7.66-.22-.66-.02-1.96-1.17-2.03-1.78-.1-.95-.29-1.9-.3-2.86-.04-3.2-.03-6.4-.03-9.6,0-151.02,0-302.05-.01-453.07,0-3.51-.13-7.03-.23-10.54-.02-.71-.43-1.17-.89-1.53-.64-.5-1.72-.19-2.38.74-.37.52-.79,1.01-1.14,1.54-.54.79-1.06,1.6-1.57,2.41-4.05,6.52-8.09,13.05-12.14,19.57-69.93,112.43-139.86,224.87-209.82,337.28-2.36,3.79-4.45,7.77-7.34,11.23-.44.53-.93.88-1.59.96-.63.07-1.27.23-1.9.23-7.68,0-15.36,0-23.04-.02-1.71,0-3.05-.78-4.02-2.2-.54-.79-1.11-1.57-1.62-2.38-1.2-1.89-2.36-3.8-3.55-5.7-47.47-76.31-94.95-152.61-142.42-228.92-27.03-43.45-54.05-86.91-81.08-130.35-1.18-1.9-2.44-3.74-3.7-5.6-.15-.22-.44-.4-.7-.46-.84-.18-1.22.19-1.25,1.03-.04,1.27-.18,2.55-.19,3.82-.03,3.84-.01,7.68-.01,11.52,0,150.7,0,301.41-.02,452.11,0,3.51.31,7.03-.28,10.53-.12.7-1.19,1.86-1.86,1.96-.63.08-1.26.25-1.89.28-1.28.05-2.56.05-3.84.05-59.52,0-119.03,0-178.55,0-1.9,0-3.85.23-5.69-.41-.53-.18-1.02-.77-1.3-1.29-.29-.54-.41-1.22-.43-1.85-.06-2.56-.08-5.12-.08-7.68,0-272.29,0-544.59,0-816.88,0-3.52-.12-7.04.34-10.55h193.91c-.08,1,.3,1.85.82,2.67,9.62,15.11,19.24,30.21,28.85,45.32,56.99,89.59,113.98,179.18,170.96,268.77,15.1,23.75,30.2,47.5,45.31,71.24.85,1.34,1.84,2.6,2.77,3.88.51.7,1.99.77,2.42.11,2.11-3.2,4.25-6.38,6.31-9.62,47.37-74.48,94.73-148.97,142.11-223.45,31.93-50.19,63.87-100.38,95.8-150.57,1.37-2.16,2.72-4.33,3.96-6.57.25-.44-.06-1.19-.11-1.8,65.28,0,130.56,0,195.83,0Z"/>
      <path class="cls-2" d="m4485.82,847.48c-2.86-.5-5.74-.3-8.62-.3-31.03-.01-62.07,0-93.1,0-26.87,0-53.75,0-80.62,0-2.56,0-5.11-.1-7.67-.17-1.02-.03-2.41-1.47-2.48-2.54-.06-.95-.19-1.9-.2-2.86-.03-3.2-.02-6.4-.02-9.6,0-151.32,0-302.64,0-453.95,0-3.52-.06-7.03-.15-10.55-.01-.58-.54-1.22-1.19-1.27-.51-.03-1.23.39-1.56.83-.96,1.27-1.79,2.65-2.64,4-7.96,12.75-15.92,25.49-23.86,38.25-53.21,85.52-106.41,171.05-159.62,256.58-14.02,22.54-28.04,45.07-42.06,67.6-1.35,2.17-2.75,4.31-4.2,6.41-.54.77-1.3,1.41-2.35,1.46-1.91.08-3.83.18-5.75.18-6.4,0-12.79-.05-19.19-.1-1.36-.01-2.51-.66-3.27-1.73-1.47-2.09-2.83-4.26-4.19-6.43-18.93-30.4-37.85-60.81-56.77-91.22-37.67-60.55-75.33-121.1-112.99-181.65-18.24-29.32-36.49-58.65-54.75-87.96-1.18-1.89-2.2-3.89-3.71-5.58-.53-.6-.92-.8-1.62-.31-.48.33-.73.82-.74,1.56-.02,1.28-.07,2.56-.07,3.84-.01,2.88,0,5.76,0,8.64,0,151,0,302,0,452.99,0,3.52-.07,7.03-.14,10.55-.03,1.61-1.42,2.86-3.15,2.93-.64.03-1.28.07-1.92.07-1.28.01-2.56.01-3.84.01-58.55,0-117.09,0-175.64,0-2.24,0-4.47-.1-6.71-.18-1.1-.04-2.3-1.37-2.37-2.58-.06-.95-.16-1.91-.16-2.86-.02-2.88-.01-5.76-.01-8.64,0-270.32,0-540.65,0-810.97,0-4.47-.22-8.96.34-13.42h193.91c-.08,1,.31,1.85.83,2.67,14.08,22.12,28.16,44.25,42.24,66.38,51.84,81.5,103.68,162.99,155.51,244.49,15.79,24.83,31.57,49.66,47.37,74.48.85,1.34,1.83,2.6,2.77,3.88.52.7,1.98.77,2.41.12,2.27-3.48,4.57-6.94,6.8-10.44,47.21-74.21,94.4-148.43,141.61-222.64,31.93-50.19,63.87-100.38,95.8-150.57,1.37-2.16,2.72-4.33,3.96-6.57.25-.44-.06-1.19-.12-1.8,64.58,0,129.16,0,193.91,0v838.98Z"/>
      <path class="cls-2" d="m3166.82,8.5c3.2.1,6.22,1.37,9.45,1.43,2.88.05,5.75.33,8.62.49,3.83.2,7.66.42,11.45,1.13,1.57.29,3.17.46,4.76.62,7.64.77,15.18,2.17,22.75,3.43,12.62,2.11,25.07,4.96,37.44,8.22,27.91,7.36,54.79,17.42,80.35,30.88,17.59,9.26,34.19,20.03,49.61,32.61,36.55,29.81,62.97,66.81,79.01,111.19,5.11,14.15,9.04,28.62,11.85,43.41,1.55,8.17,2.79,16.37,3.79,24.63,2.42,20.07,2.76,40.18,2.01,60.34-.15,4.16-.29,8.31-.56,12.46-.2,3.19-.58,6.37-.9,9.55-.2,1.91-.47,3.81-.68,5.71-3.3,29.1-10.54,57.14-22.45,83.94-15.32,34.46-37.46,63.85-66.05,88.4-21,18.04-44.29,32.5-69.32,44.24-20.02,9.39-40.75,16.8-62.02,22.75-13.55,3.79-27.28,6.88-41.12,9.3-11.33,1.98-22.69,3.92-34.2,4.63-12.71,1.88-25.51,1.78-38.3,1.78-40.3,0-80.61,0-120.91,0-2.87,0-5.77-.28-8.61.34-.54.12-1.1.71-1.39,1.23-.3.53-.37,1.23-.38,1.86-.05,3.2-.06,6.4-.06,9.59,0,71.01,0,142.02-.02,213.03,0,3.19.36,6.4-.4,9.55-.13.53-.69,1.07-1.2,1.38-.51.31-1.2.44-1.81.46-2.56.07-5.12.09-7.67.09-57.26,0-114.52,0-171.77,0-2.56,0-5.12-.03-7.67-.08-2.14-.04-3.3-1.35-3.34-3.75-.04-2.56-.05-5.12-.05-7.68,0-272.2,0-544.4,0-816.6v-10.55h339.83Zm-145.9,300.45v68.14c0,16.63,0,33.27.01,49.9,0,2.23.14,4.46.24,6.69.05,1.09,1.4,2.25,2.62,2.31,1.28.06,2.55.16,3.83.16,43.83,0,87.65.04,131.48-.03,10.57-.02,21.06-1.13,31.45-3.16,8.82-1.72,17.37-4.32,25.57-7.96,21.91-9.71,38.18-25.31,48.71-46.88,3.09-6.34,5.62-12.89,7.5-19.68,3.52-12.68,5.63-25.59,5.91-38.77.11-5.12.08-10.24.1-15.35.03-12.21-1.56-24.24-4.2-36.13-2.15-9.7-5.35-19.08-9.78-28-10.03-20.18-25.15-35.27-45.47-45.07-9.56-4.61-19.64-7.69-30.04-9.63-8.49-1.59-17.07-2.6-25.75-2.52-3.84.04-7.68-.03-11.52-.03-39.35,0-78.7,0-118.04,0-2.56,0-5.12-.02-7.68.03-.95.02-1.9.18-2.85.28-.67.07-1.84,1.25-1.86,1.92-.09,3.19-.22,6.39-.22,9.58-.02,38.07-.01,76.13-.01,114.2Z"/>
      <path class="cls-2" d="m4485.82,1575.1c-.94.15-1.88.39-2.83.43-1.92.08-3.84.05-5.76.05-32.95,0-65.91,0-98.86,0-1.92,0-3.84,0-5.76-.05-1.64-.05-3.13-.5-4.16-1.93-.93-1.3-1.93-2.55-2.88-3.83-28.49-38.6-56.98-77.2-85.47-115.81-38.94-52.76-77.87-105.51-116.83-158.25-1.51-2.04-2.75-4.3-4.77-5.93-.24-.19-.69-.41-.87-.31-.51.29-.93.75-1.38,1.14-.05,2.88-.15,5.75-.15,8.63-.01,36.79,0,73.58,0,110.37,0,51.51,0,103.01-.01,154.52,0,3.19-.12,6.39-.31,9.58-.03.5-.67,1.09-1.18,1.39-.51.3-1.2.37-1.82.4-1.6.07-3.2.09-4.8.09-33.91,0-67.82,0-101.74-.01-1.59,0-3.17-.2-4.76-.3-.64-.04-1.96-1.27-2.02-1.84-.07-.63-.22-1.26-.22-1.89-.03-2.88-.04-5.76-.04-8.64,0-159.96,0-319.91,0-479.87,0-3.19.1-6.39.2-9.58.04-1.56,1.5-2.87,3.15-2.92.64-.02,1.28-.05,1.92-.06.96-.01,1.92,0,2.88,0,31.67,0,63.35,0,95.02,0,1.91,0,3.83.13,5.74.23.65.03,1.18.38,1.61.91,1,1.24,2.07,2.43,3.01,3.71,13.45,18.3,26.88,36.61,40.31,54.92,56.93,77.63,113.86,155.27,170.8,232.9,1.31,1.78,2.36,3.8,4.3,5.04.22.14.59.17.86.11.3-.06.74-.23.81-.45.19-.58.3-1.21.31-1.83.03-2.88.02-5.76.02-8.64,0-91.18,0-182.35,0-273.53,0-3.2-.02-6.4.07-9.6.06-2.19.78-3.7,3.32-3.72.96,0,1.92-.06,2.88-.07,2.56-.01,5.12,0,7.68,0,30.71,0,61.43,0,92.14-.01,3.19,0,6.4.22,9.58-.26v504.92Z"/>
      <path class="cls-1" d="m991.51,1600.06c.13-.94.37-1.89.37-2.83,0-127.98-.01-255.97-.03-383.95-.43-7.72.67-15.33,1.78-22.92.84-5.7,2.34-11.29,4.28-16.7,5.38-14.93,13.35-28.28,24.48-39.72,9.94-10.22,21.33-18.3,34.4-23.99,7.94-3.46,16.19-5.8,24.71-7.44,6.66-1.28,13.32-1.63,20.04-1.64,2.56,0,5.12,0,7.68,0,141.43,0,282.86,0,424.29.01,3.51,0,7.04-.26,10.53.25.22.03.46.35.59.59.14.26.33.66.23.86-.28.56-.64,1.12-1.07,1.57-2.43,2.55-4.89,5.07-7.34,7.59-16.97,17.42-33.54,35.21-50,53.12-1.73,1.88-3.5,3.74-5.22,5.63-12.29,13.47-24.58,26.94-36.85,40.44-6.24,6.86-12.44,13.77-18.65,20.66-14.35,15.93-28.68,31.87-43.03,47.79-17.99,19.96-36,39.92-53.99,59.87-14.57,16.16-29.38,32.09-44.18,48.04-16.77,18.06-33.93,35.73-51.16,53.34-16.79,17.15-33.97,33.91-51.55,50.24-17.35,16.12-35.19,31.67-53.8,46.34-11.81,9.31-23.96,18.15-36.55,26.4-7.76,5.09-15.71,9.86-23.87,14.27-11.27,6.08-22.88,11.39-35.16,15.13-4.28,1.3-8.56,2.56-12.97,3.39-3.13.59-6.19,1.55-9.26,2.44-.55.16-.95.8-1.42,1.22h-17.28Z"/>
      <path class="cls-2" d="m308.36,802.37c0-152.94,0-305.87.01-458.81,0-3.51-.31-7.05.31-10.53.1-.55.64-1.15,1.14-1.47.51-.33,1.21-.45,1.83-.48,1.92-.08,3.84-.08,5.76-.08,64.31,0,128.63,0,192.94,0,1.92,0,3.84.04,5.75.15.95.06,1.91.34,2.49,1.19,1.44,2.11,2.89,4.22,4.26,6.38,45.65,71.78,91.29,143.57,136.95,215.35,40.68,63.96,81.37,127.9,122.06,191.85,1.54,2.43,3.1,4.85,4.66,7.27.72,1.11,2.54,1.31,3.16.35,1.39-2.15,2.8-4.28,4.17-6.43,86.51-136,173.02-272.01,259.53-408.01,1.37-2.16,2.78-4.29,4.25-6.38.77-1.09,1.94-1.63,3.28-1.66,2.24-.05,4.48-.07,6.72-.07,63.35,0,126.71,0,190.06,0,2.87,0,5.77-.28,8.6.37.52.12,1.05.77,1.32,1.31.27.54.31,1.24.32,1.88.04,2.88.05,5.76.05,8.64,0,218.53,0,437.05,0,655.58,0,2.88-.08,5.76-.01,8.64.08,3.33-1.85,3.8-4.2,3.89-1.6.06-3.2.05-4.8.05-4.48,0-8.96,0-13.44,0-58.55,0-117.11,0-175.66-.01-3.19,0-6.41.37-9.55-.46-.51-.14-1.01-.77-1.28-1.29-.28-.53-.35-1.22-.36-1.83-.05-3.2-.07-6.4-.07-9.6,0-90.22,0-180.45,0-270.67,0-3.2-.03-6.4-.03-9.6,0-.74-.25-1.2-.68-1.59-.58-.52-1.64-.12-2.32.95-1.03,1.62-2.07,3.23-3.08,4.86-26.53,42.63-53.07,85.25-79.59,127.88-59.8,96.13-119.6,192.26-179.41,288.37-1.34,2.16-2.43,4.52-4.34,6.29-.42.39-1.16.42-1.75.05-.52-.33-.96-.84-1.3-1.37-1.39-2.15-2.73-4.33-4.08-6.5-85.49-137.39-170.99-274.78-256.48-412.17-1.69-2.72-3.39-5.43-5.16-8.09-.39-.59-1.09-.56-1.68-.41-.76.2-.97.63-.92,1.44.07,1.27-.03,2.56-.03,3.84,0,3.2,0,6.4,0,9.6,0,176.61,0,353.22-.02,529.84,0,3.5.38,7.03-.34,10.52-.12.6-1.35,1.83-1.95,1.88-.64.04-1.27.15-1.91.16-2.56.03-5.12.04-7.68.04-12.8,0-25.6,0-38.4,0-48.95,0-97.91,0-146.86,0-3.19,0-6.39-.13-9.58-.21-1.15-.03-2.4-1.33-2.46-2.49-.05-.96-.18-1.91-.19-2.86-.03-2.88-.02-5.76-.02-8.64,0-152.3,0-304.59,0-456.89Z"/>
      <path class="cls-2" d="m3834.6,1283.39c35.52,0,71.04,0,106.55,0,2.87,0,5.75.14,8.62.23.71.02,1.96,1.14,2,1.78.11,1.91.29,3.82.29,5.74.02,14.4.01,28.8.01,43.2s-.03,30.08.01,45.11c.01,5.13-.46,10.18-1.29,15.26-1.24,7.58-2.67,15.11-4.52,22.56-4.5,18.07-10.98,35.4-19.92,51.76-14.85,27.15-35.13,49.44-60.38,67.23-16.02,11.29-33.29,20.28-51.53,27.41-14.91,5.83-30.21,10.36-45.85,13.82-8.75,1.94-17.56,3.53-26.41,4.8-13.31,1.92-26.7,3.02-40.17,2.85-6.72-.08-13.44-.26-20.15-.46-4.16-.12-8.3-.48-12.42-1.14-5.36-.87-10.85-.91-16.13-2.34-11.73-1.71-23.2-4.62-34.5-8.12-38.79-12.01-73.28-31.61-103.21-59.08-30.2-27.72-52.81-60.67-67.54-98.96-5.75-14.95-9.99-30.33-12.82-46.12-2.37-13.27-3.74-26.59-3.88-40.06-.09-8.64.07-17.28.57-25.91.17-2.87.55-5.73.87-8.59.18-1.59.47-3.17.63-4.76,1.27-12.12,3.86-23.98,7.08-35.71,10.33-37.62,28.32-71.16,53.87-100.63,22.28-25.7,48.71-46.13,78.98-61.57,21.47-10.95,44.03-18.86,67.67-23.71,7.83-1.61,15.71-2.85,23.64-3.94,14.32-1.98,28.7-2.15,43.1-2.01,5.44.05,10.87.33,16.31.54,3.52.14,7.03.37,10.51.96,1.58.27,3.17.43,4.76.61,26.56,2.92,52.15,9.64,76.76,19.96,24.34,10.21,46.71,23.76,67.08,40.56,17.36,14.32,32.84,30.43,46.1,48.63,3.77,5.17,7.45,10.4,10.43,16.08.36.68,0,1.94-.72,2.51-.75.59-1.47,1.22-2.26,1.76-26.75,18.11-53.51,36.21-80.27,54.31-1.06.72-2.18,1.34-3.27,2.01-.57.35-2.12-.1-2.56-.75-1.07-1.59-2.13-3.19-3.2-4.78-11.98-17.75-27.04-32.34-44.97-44-15.67-10.19-32.59-17.61-50.53-22.75-9.53-2.73-19.19-4.91-29.04-6.23-4.44-.59-8.86-1.21-13.32-1.64-8.65-.83-17.27-.54-25.88.32-7.97.79-15.77,2.52-23.47,4.75-39.71,11.53-70.53,38.99-88.43,71.99-7.21,13.29-12.33,27.33-15.61,42.11-3.64,16.41-4.23,32.94-3.1,49.62,3.24,29.93,13.52,57.11,31.87,81.09,14.85,19.4,33.26,34.44,55.42,44.82,11.05,5.18,22.6,8.77,34.6,11.06,8.23,1.57,16.5,2.05,24.81,2.2,7.68.14,15.38-.09,23.01-.85,15.98-1.61,31.57-4.99,46.35-11.51,12.42-5.48,23.55-12.86,32.99-22.69,11.31-11.79,18.97-25.63,23.26-41.36,1.18-4.32,2.26-8.68,2.24-13.2,0-.6-.23-1.33-.61-1.78-.38-.44-1.06-.71-1.66-.87-.6-.16-1.27-.14-1.91-.14-2.88-.02-5.76-.02-8.64-.02-29.44,0-58.88,0-88.31-.01-2.55,0-5.1-.14-7.65-.24-1.14-.05-2.3-1.35-2.36-2.57-.03-.64-.1-1.28-.11-1.91-.02-.96-.02-1.92-.02-2.88,0-28.8,0-57.59.01-86.39,0-1.91.16-3.83.26-5.74.04-.69,1.19-1.86,1.86-1.94.63-.08,1.26-.26,1.89-.27,2.88-.04,5.76-.05,8.64-.05,35.2,0,70.4,0,105.59,0Z"/>
      <path class="cls-2" d="m1784,1322.78c0-79.65,0-159.29,0-238.94,0-3.2.01-6.4.06-9.6.04-2.44,1.16-3.66,3.33-3.72.96-.03,1.92-.06,2.88-.07,1.92-.01,3.84,0,5.76,0,61.1,0,122.19,0,183.29,0,5.44,0,10.88.02,16.31.24,9.47.37,25.96,2.07,35.28,3.69,38.36,6.68,73.78,20.51,105.41,43.5,32.23,23.42,56.74,53.28,73.98,89.13,9.18,19.09,15.81,39.06,19.89,59.88,1.66,8.48,2.91,16.99,3.97,25.57,2.01,16.27,1.73,32.56,1.24,48.86-.09,2.87-.45,5.74-.73,8.6-.22,2.23-.5,4.45-.75,6.67-4.72,42.06-18.34,80.88-42.45,115.82-23.4,33.92-53.87,59.64-90.91,77.59-18.49,8.96-37.83,15.45-57.97,19.59-8.14,1.67-16.33,2.97-24.58,4.06-9.23,1.23-18.47,1.63-27.74,1.84-4.16.1-8.32.09-12.47.09-60.46,0-120.91,0-181.37,0-3.2,0-6.39-.08-9.59-.14-1.32-.02-2.6-1.1-2.63-2.21-.08-3.19-.19-6.39-.19-9.59-.01-30.07,0-60.13,0-90.2,0-50.22,0-100.44,0-150.66Zm116.95.23v76.75c0,19.51,0,39.01.01,58.52,0,2.55.15,5.11.23,7.66.02.65,1.19,2,1.75,2.03,1.91.11,3.83.28,5.74.28,24.3.02,48.61.02,72.91,0,3.52,0,7.03-.2,10.55-.27,9.01-.17,18.73-1.75,28.38-4.3,22.17-5.86,41.26-16.96,56.95-33.78,7.68-8.24,14.06-17.4,19.24-27.38,6.82-13.13,11.46-27.02,14.29-41.54,1.1-5.66,1.74-11.36,2.47-17.07.69-5.41,1.03-10.82,1.08-16.26.07-8.96-.25-17.87-1.31-26.8-1.25-10.51-3.26-20.83-6.27-30.95-4.32-14.5-10.65-28.06-19.36-40.47-14.2-20.22-32.9-34.66-56.05-43.27-14.08-5.24-27.77-7.37-42.18-8.22-1.28-.07-2.56-.06-3.84-.08-1.6-.02-3.2-.02-4.8-.02-23.34,0-46.69,0-70.03,0-2.24,0-4.47.06-6.71.11-1.56.03-2.93,1.43-2.96,3.08-.05,3.2-.09,6.39-.09,9.59,0,44.13,0,88.26,0,132.39Z"/>
      <path class="cls-2" d="m2319.72,1323.17c0-80.3,0-160.6.01-240.89,0-3.19-.25-6.39.27-9.57.1-.58,1.28-2.02,1.78-2.06.64-.05,1.27-.16,1.91-.17,2.88-.03,5.76-.04,8.64-.04,109.1,0,218.19,0,327.29.02,3.5,0,7.03-.39,10.49.38.52.11,1.03.74,1.32,1.26.3.54.39,1.22.43,1.85.08,1.28.08,2.56.08,3.84,0,31.03,0,62.06,0,93.09,0,1.59-.16,3.19-.23,4.78-.03.63-1.23,1.93-1.81,1.96-1.28.07-2.55.19-3.83.19-4.8.02-9.6.01-14.4.01-67.82,0-135.65,0-203.47.01-3.19,0-6.39.11-9.57.3-.5.03-1.08.69-1.39,1.2-.31.52-.42,1.22-.45,1.84-.08,1.6-.09,3.2-.09,4.8,0,26.55,0,53.11,0,79.66,0,2.23-.21,4.5.46,6.67.16.51.87.96,1.43,1.2.56.24,1.26.22,1.89.22,3.2.03,6.4.04,9.6.04,63.99,0,127.97,0,191.96.01,3.19,0,6.39-.23,9.58.24.65.1,1.98,1.2,2.01,1.79.11,2.23.28,4.46.29,6.7.02,21.43.01,42.87.01,64.3,0,9.6,0,19.19-.02,28.79,0,1.27-.08,2.57-.36,3.8-.12.52-.76,1.04-1.29,1.32-.54.29-1.23.38-1.86.39-3.2.05-6.4.06-9.6.06-63.99,0-127.97,0-191.96,0-3.2,0-6.39.09-9.59.16-1.15.03-2.28,1.28-2.36,2.55-.04.64-.14,1.27-.15,1.91-.03,1.6-.03,3.2-.03,4.8,0,22.71-.01,45.43.01,68.14,0,2.55.12,5.11.33,7.66.04.51.7,1.1,1.22,1.39.52.29,1.23.34,1.85.35,3.52.05,7.04.09,10.56.09,69.42,0,138.85,0,208.27,0,3.2,0,6.4.03,9.59.11,2.54.06,3.23,1.44,3.35,3.75.07,1.28.06,2.56.06,3.84,0,30.39,0,60.78,0,91.17,0,2.23-.1,4.48-.32,6.7-.05.5-.73,1.08-1.25,1.36-.53.28-1.23.31-1.86.32-3.2.05-6.4.07-9.6.07-108.78,0-217.55,0-326.33,0-2.88,0-5.76,0-8.64-.04-2.71-.04-4.21-.63-4.19-3.8.02-3.2-.03-6.4-.03-9.6,0-79.66,0-159.32,0-238.97Z"/>
      <path class="cls-2" d="m2935.16,1061.88c6.28.23,13.95.49,21.62.79,1.6.06,3.2.15,4.79.36,10.78,1.42,21.55,2.83,32.16,5.32,29.03,6.81,55.69,18.71,79.38,36.96,14.03,10.8,26.33,23.32,36.69,37.7,3.93,5.46,7.58,11.08,10.6,17.11.47.94.05,2.74-.86,3.47-1.25,1-2.5,1.99-3.77,2.97-23.36,17.9-46.73,35.8-70.1,53.68-1.52,1.16-3.12,2.22-4.69,3.33-.56.39-2.18.01-2.59-.59-1.07-1.59-2.14-3.18-3.23-4.76-6.44-9.34-14.51-17-23.96-23.25-8.87-5.86-18.43-10.24-28.54-13.46-8.85-2.82-17.89-4.73-27.09-6.1-10.5-1.57-21.02-1.87-31.58-1.65-9.38.19-18.35,2.38-27.03,5.88-3.87,1.56-7.53,3.53-10.98,5.86-3.73,2.52-7.05,5.52-9.9,9.02-3.31,4.05-5.45,8.67-6.4,13.78-.71,3.8-.59,7.67.17,11.46,1.55,7.72,5.06,14.43,10.59,20.08,2.47,2.52,5.11,4.84,7.98,6.89,4.17,2.99,8.57,5.58,13.15,7.88,9.16,4.62,18.73,8.19,28.43,11.46,12.42,4.18,25.02,7.78,37.61,11.42,14.74,4.26,29.47,8.54,44,13.47,13.33,4.52,26.46,9.53,39.16,15.62,13.01,6.24,25.44,13.44,36.82,22.37,9.1,7.15,17.29,15.2,24.34,24.39,10.69,13.92,17.93,29.51,21.88,46.53,3.76,16.22,4.66,27.74,4.09,43.81-.22,6.1-1.36,12.09-2.74,18-5.1,21.89-15.18,41.31-29.53,58.55-13.7,16.45-30.25,29.36-49.14,39.32-14.78,7.8-30.4,13.39-46.59,17.41-9.63,2.39-19.43,3.89-29.23,5.37-1.89.29-3.82.37-5.73.52-2.23.18-4.48.25-6.7.51-14.04,1.65-28.11,1.29-42.19.85-9.53-1.08-19.17-1.17-28.61-3.04-19.74-2.7-38.81-7.85-57.27-15.34-20.62-8.37-39.48-19.64-56.46-34.02-17.49-14.81-32.12-32.06-43.57-51.95-.8-1.38-1.46-2.84-2.25-4.23-.52-.91-.33-2.42.84-3.4,1.47-1.23,2.94-2.45,4.46-3.62,4.56-3.52,9.14-7,13.71-10.51,20.56-15.77,41.12-31.55,61.69-47.31,2.03-1.55,4.13-3,6.2-4.5.65-.47,2.03-.18,2.54.52.56.78,1.16,1.52,1.67,2.33,5.83,9.28,13.07,17.38,21.15,24.72,15.1,13.72,32.23,24.07,51.61,30.62,5.93,2,15.64,4.31,21.36,5.37,13.35,2.49,26.75,2.03,40.19,1.33,10.17-1.34,20.21-3.15,29.7-7.28,7.12-3.1,13.58-7.12,18.95-12.79,1.77-1.87,3.34-3.87,4.73-6.03,5.79-8.97,5.57-18.03.46-27.19-1.26-2.25-2.8-4.28-4.54-6.17-2.82-3.08-6.01-5.73-9.46-8.1-5.03-3.46-10.41-6.26-15.93-8.8-8.14-3.75-16.55-6.82-25.03-9.67-12.42-4.18-24.99-7.89-37.52-11.71-15.59-4.75-31.15-9.62-46.45-15.25-12.31-4.53-24.41-9.54-36.15-15.4-9.45-4.72-18.62-9.95-27.31-15.97-11.89-8.23-22.72-17.65-31.96-28.85-11.58-14.02-19.76-29.81-24.71-47.26-2.09-7.38-3.61-14.9-4.42-22.56-.63-6.05-1.37-12.07-1.38-18.17-.02-6.41.36-12.75,1.24-19.12,1.63-11.81,4.75-23.16,9.31-34.13,12.47-30.01,32.98-52.97,61.03-69.26,13.07-7.59,26.99-13.17,41.55-17.13,10.5-2.86,21.17-4.8,31.96-6.28,12.1-1.66,24.23-1.8,37.79-2.16Z"/>
      <path class="cls-2" d="m3221.92,1322.5c0-79.99,0-159.97.01-239.96,0-3.19.14-6.38.25-9.57.04-1.16,1.34-2.33,2.55-2.38.64-.03,1.28-.1,1.91-.11,1.6-.02,3.2-.02,4.8-.02,32.64,0,65.27,0,97.91,0,2.24,0,4.47.09,6.71.16,1.16.04,2.37,1.27,2.48,2.48.09.95.23,1.91.25,2.86.04,2.88.02,5.76.02,8.64,0,83.51,0,167.01,0,250.52,0,75.19,0,150.38,0,225.56,0,2.56-.02,5.12,0,7.68.06,6.99-.38,7.25-6.74,7.23-2.88,0-5.76,0-8.64,0-30.4,0-60.79,0-91.19,0-2.88,0-5.77.22-8.61-.34-.52-.1-1.07-.76-1.34-1.3-.27-.54-.29-1.25-.3-1.88-.04-3.2-.06-6.4-.06-9.6,0-79.99,0-159.97,0-239.96Z"/>
    </g>
  </g>
</svg>
