<?xml version="1.0" encoding="UTF-8"?>
<svg id="Vrstva_2" data-name="Vrstva 2" xmlns="http://www.w3.org/2000/svg" viewBox="0 0 1555.42 1608.56">
  <defs>
    <style>
      .cls-1 {
        fill: #f28d29;
      }

      .cls-1, .cls-2 {
        stroke: #fff;
        stroke-miterlimit: 10;
        stroke-width: 17px;
      }

      .cls-2 {
        fill: #154387;
      }
    </style>
  </defs>
  <g id="Vrstva_1-2" data-name="Vrstva 1">
    <g>
      <path class="cls-2" d="m1417.74,8.5c3.43.7,6.83,1.54,10.36,1.73,8.36.45,16.44,2.45,24.38,4.93,44.01,13.77,74.41,47.36,87.07,84.24,4.07,11.86,6.72,24,7.11,36.57.08,2.56.15,5.12.17,7.68.03,3.52.01,7.04.01,10.56,0,281.54,0,563.08-.02,844.61,0,3.83.36,7.67-.31,11.49-.11.6-1.31,1.9-1.88,1.94-.64.05-1.27.15-1.91.16-1.92.03-3.84.04-5.76.04-31.99,0-63.99,0-95.98,0-15.04,0-30.07.01-45.11-.01-1.91,0-3.82-.18-5.73-.28-.56-.03-1.92-1.3-1.99-1.84-.12-.95-.31-1.9-.32-2.85-.05-3.52-.04-7.04-.04-10.56,0-271.3,0-542.6,0-813.9,0-3.84-.04-7.68-.12-11.51-.01-.62-.2-1.3-.53-1.82-.32-.5-.86-.95-1.41-1.19-.56-.25-1.24-.28-1.86-.29-3.2-.04-6.4-.05-9.6-.05-397.05,0-794.1,0-1191.16,0-3.2,0-6.4.02-9.6.06-1.71.02-3.1,1.32-3.18,2.89-.05.96-.13,1.91-.14,2.87-.02,2.56-.01,5.12-.01,7.68,0,414.63,0,829.26,0,1243.89,0,3.84.12,7.67.19,11.51,0,.55,1.34,1.86,1.93,1.92.63.07,1.25.3,1.87.31,3.52.05,7.04.07,10.56.07,231.96,0,463.92,0,695.88.02,3.82,0,7.67-.36,11.47.35.53.1,1.08.68,1.4,1.18.33.51.51,1.2.53,1.81.09,2.24.1,4.48.1,6.72,0,46.71,0,93.42,0,140.13,0,3.52.05,7.04-.51,10.52H137.14c-.45-.42-.84-1.09-1.37-1.23-1.54-.39-3.13-.6-4.71-.83-7.27-1.07-14.52-2.26-21.58-4.29-26.83-7.71-49.4-22.14-67.23-43.65-17.59-21.22-27.85-45.59-30.31-73.14-.11-1.27-.26-2.55-.52-3.79-.2-.94-.7-1.78-1.44-2.43-.48-.42-.99-.8-1.48-1.2,0-367.33,0-734.66,0-1102,.86-.44,1.76-.86,2.73-.64,1.55.36,3.13.72,4.6,1.31,7.7,3.11,15.38,6.28,23.05,9.46,1.18.49,2.34,1.05,3.41,1.74.47.3.78.97.98,1.54.23.66-.86,2.05-1.49,2.16-3.17.56-6.37.2-9.55.33-1.26.05-2.53.18-3.78.33-.71.08-1.17.54-1.31,1.25-.11.54.12,1.21.77,1.49,4.12,1.76,8.44,2.93,12.73,4.2,1.6.47,3.23.38,4.57-.66,4.05-3.14,8.34-5.91,12.73-8.54,1.08-.65,2.02-1.55,2.96-2.41,1.52-1.37,2.08-4.37,1.13-6.22-.58-1.13-1.16-2.3-1.96-3.28-2.03-2.47-4.13-4.88-6.3-7.22-4.14-4.45-8.38-8.8-12.51-13.26-3.69-4-7.18-8.17-10.24-12.68-4.79-7.08-7.32-14.85-7.1-23.46.1-3.84.28-7.66.85-11.47,1.17-7.9,2.22-15.83,3.39-23.73.23-1.56.81-3.07,1.2-4.62.21-.85,1.46-1.28,2.35-.65,7.84,5.52,15.62,11.13,23.17,17.04.25.19.42.48.65.7.46.44.48,2.12.02,2.64-.64.73-1.38,1.37-2.42,1.14-4.05-.89-8.08-1.86-12.14-2.72-.79-.17-1.25.3-1.17.83.04.31.1.68.29.9,2.54,2.96,5.69,5.16,9.18,6.8,3.85,1.8,7.81,2.45,12.1,1.11,4.32-1.35,8.35-3.15,12.08-5.68,2.03-1.37,2.79-3.42,2.9-5.76.03-.63-.1-1.27-.22-1.9-.35-1.91-1.17-3.62-2.08-5.33-5.54-10.45-11-20.93-16.53-31.39-1.5-2.83-2.94-5.68-3.9-8.74-.38-1.21-.73-2.46-.9-3.72-.84-6.13-.39-12.12,2.14-17.86.39-.88.82-1.74,1.18-2.62,3.03-7.39,6.05-14.78,9.05-22.18,1.08-2.66,2.09-5.36,3.17-8.02.48-1.18,1.06-2.33,1.59-3.49.55-1.19,2.16-1.3,3.07-.17,5.99,7.49,11.97,14.98,17.94,22.48.2.25.31.56.49.82.98,1.47.99,1.64-.28,3.36-.47.64-1.88,1.02-2.53.67-1.13-.59-2.28-1.15-3.38-1.8-3.02-1.79-6.02-3.62-9.02-5.46-.67-.41-1.2-.51-1.65-.04-.43.46-.63,1.16-.19,1.68,1.65,1.95,3.36,3.86,5.12,5.71,7.19,7.56,4.51,6.86,15.6,5.91,2.23-.19,4.47-.22,6.71-.31,2.25-.1,4.44-.47,6.6-1.12,1.65-.5,3.29-2.42,3.38-4.25.06-1.27.14-2.58-.09-3.81-.65-3.45-1.39-6.89-2.22-10.31-2.42-9.94-4.27-19.99-6.39-30-.86-4.08-.94-8.25-.69-12.42.24-3.93,1.48-7.51,3.47-10.85.98-1.64,2.1-3.21,3.25-4.74,1.93-2.55,3.96-5.02,5.9-7.56,5.24-6.86,10.43-13.76,15.68-20.62.77-1.01,1.65-1.94,2.58-2.8.56-.52,1.23-.47,1.63-.02.42.47.86.98,1.1,1.55,3.61,8.53,7.19,17.07,10.75,25.63.24.57.28,1.24.31,1.86.03.69-.31,1.22-.8,1.66-1.14,1.04-2.38,1.07-3.39.07-.68-.67-1.38-1.33-2.02-2.04-1.93-2.13-3.84-4.29-5.77-6.43-.47-.52-1.12-.73-1.58-.35-.5.42-.47,1.12-.3,1.79.88,3.47,2.55,6.57,4.69,9.37,5.07,6.67,11.8,9.59,20.17,8.37,1.96-.29,3.59-1.32,4.83-2.88,1.61-2.02,2.83-4.25,3.34-6.82.62-3.14,1.18-6.29,1.31-9.49.14-3.52.33-7.03.38-10.55.1-7.05.68-14.04,1.7-21.02.56-3.84,1.65-7.47,3.17-11.01,1.66-3.87,3.93-7.33,7.07-10.15,2.61-2.35,5.23-4.71,7.94-6.94,7.9-6.5,16.22-12.47,24.44-18.56.25-.19.59-.25.86-.41.83-.5,2.24-.07,2.35.73,1.39,9.48,2.8,18.96,4.16,28.45.13.94.02,1.91.01,2.86,0,.52-1.42,1.75-2.08,1.77-.99.02-2.01-.23-2.55-1.01-2.55-3.68-4.22-7.88-6.78-11.55-.43-.62-.91-.88-1.37-.53-.19.15-.2.6-.2.91-.01,4.57,1.31,8.81,3.28,12.88,2.2,4.54,5.82,7.62,10.43,9.4,3.27,1.26,6.68,2.22,10.23,2.42.95.05,1.94.08,2.86-.11.55-.12,1.22-.58,1.47-1.07.72-1.42,1.33-2.91,1.84-4.42,2.02-6.06,3.99-12.14,5.98-18.22,2.38-7.29,4.98-14.5,7.77-21.65,1.29-3.29,2.94-6.38,4.95-9.28,2.23-3.21,4.97-5.87,8.46-7.63,4.56-2.3,9.13-4.62,13.8-6.69,8.47-3.75,17.02-7.33,25.53-10.97.29-.12.61-.23.92-.25.31-.02.63.09.94.11.7.03,1.14.41,1.23,1.18.43,3.84-.14,7.66-.64,11.43-.75,5.71-1.38,11.43-1.87,17.16-.05.62-.27,1.23-.47,1.83-.1.29-.33.55-.5.82-.45.69-1.91,1.23-2.51.84-.51-.34-1.2-.68-1.4-1.19-1.04-2.68-1.94-5.4-2.62-8.21-.37-1.54-1.09-2.99-1.65-4.49-.24-.63-.75-.92-1.5-.73-.16.04-.28.5-.29.77-.07,4.79-.12,9.59-.16,14.38-.01,1.67.53,3.12,1.91,4.18,3.3,2.53,6.48,5.2,9.41,8.17.67.68,1.45,1.25,2.21,1.83.51.39,1.06.71,1.6,1.05,2.04,1.27,5.35.93,7.2-.64,1.98-1.68,3.46-3.75,4.85-5.91,5.69-8.88,11.37-17.77,17.04-26.67,1.2-1.89,2.38-3.79,3.57-5.68,5.11-8.12,12.69-12.49,21.94-13.94,4.73-.74,9.49-1.45,14.26-1.88,7.65-.7,15.18-2.26,22.86-2.68,1.63-.09,3.09-.75,4.5-1.53h1013.73Z"/>
      <path class="cls-1" d="m991.51,1600.06c.13-.94.37-1.89.37-2.83,0-127.98-.01-255.97-.03-383.95-.43-7.72.67-15.33,1.78-22.92.84-5.7,2.34-11.29,4.28-16.7,5.38-14.93,13.35-28.28,24.48-39.72,9.94-10.22,21.33-18.3,34.4-23.99,7.94-3.46,16.19-5.8,24.71-7.44,6.66-1.28,13.32-1.63,20.04-1.64,2.56,0,5.12,0,7.68,0,141.43,0,282.86,0,424.29.01,3.51,0,7.04-.26,10.53.25.22.03.46.35.59.59.14.26.33.66.23.86-.28.56-.64,1.12-1.07,1.57-2.43,2.55-4.89,5.07-7.34,7.59-16.97,17.42-33.54,35.21-50,53.12-1.73,1.88-3.5,3.74-5.22,5.63-12.29,13.47-24.58,26.94-36.85,40.44-6.24,6.86-12.44,13.77-18.65,20.66-14.35,15.93-28.68,31.87-43.03,47.79-17.99,19.96-36,39.92-53.99,59.87-14.57,16.16-29.38,32.09-44.18,48.04-16.77,18.06-33.93,35.73-51.16,53.34-16.79,17.15-33.97,33.91-51.55,50.24-17.35,16.12-35.19,31.67-53.8,46.34-11.81,9.31-23.96,18.15-36.55,26.4-7.76,5.09-15.71,9.86-23.87,14.27-11.27,6.08-22.88,11.39-35.16,15.13-4.28,1.3-8.56,2.56-12.97,3.39-3.13.59-6.19,1.55-9.26,2.44-.55.16-.95.8-1.42,1.22h-17.28Z"/>
      <path class="cls-2" d="m308.36,802.37c0-152.94,0-305.87.01-458.81,0-3.51-.31-7.05.31-10.53.1-.55.64-1.15,1.14-1.47.51-.33,1.21-.45,1.83-.48,1.92-.08,3.84-.08,5.76-.08,64.31,0,128.63,0,192.94,0,1.92,0,3.84.04,5.75.15.95.06,1.91.34,2.49,1.19,1.44,2.11,2.89,4.22,4.26,6.38,45.65,71.78,91.29,143.57,136.95,215.35,40.68,63.96,81.37,127.9,122.06,191.85,1.54,2.43,3.1,4.85,4.66,7.27.72,1.11,2.54,1.31,3.16.35,1.39-2.15,2.8-4.28,4.17-6.43,86.51-136,173.02-272.01,259.53-408.01,1.37-2.16,2.78-4.29,4.25-6.38.77-1.09,1.94-1.63,3.28-1.66,2.24-.05,4.48-.07,6.72-.07,63.35,0,126.71,0,190.06,0,2.87,0,5.77-.28,8.6.37.52.12,1.05.77,1.32,1.31.27.54.31,1.24.32,1.88.04,2.88.05,5.76.05,8.64,0,218.53,0,437.05,0,655.58,0,2.88-.08,5.76-.01,8.64.08,3.33-1.85,3.8-4.2,3.89-1.6.06-3.2.05-4.8.05-4.48,0-8.96,0-13.44,0-58.55,0-117.11,0-175.66-.01-3.19,0-6.41.37-9.55-.46-.51-.14-1.01-.77-1.28-1.29-.28-.53-.35-1.22-.36-1.83-.05-3.2-.07-6.4-.07-9.6,0-90.22,0-180.45,0-270.67,0-3.2-.03-6.4-.03-9.6,0-.74-.25-1.2-.68-1.59-.58-.52-1.64-.12-2.32.95-1.03,1.62-2.07,3.23-3.08,4.86-26.53,42.63-53.07,85.25-79.59,127.88-59.8,96.13-119.6,192.26-179.41,288.37-1.34,2.16-2.43,4.52-4.34,6.29-.42.39-1.16.42-1.75.05-.52-.33-.96-.84-1.3-1.37-1.39-2.15-2.73-4.33-4.08-6.5-85.49-137.39-170.99-274.78-256.48-412.17-1.69-2.72-3.39-5.43-5.16-8.09-.39-.59-1.09-.56-1.68-.41-.76.2-.97.63-.92,1.44.07,1.27-.03,2.56-.03,3.84,0,3.2,0,6.4,0,9.6,0,176.61,0,353.22-.02,529.84,0,3.5.38,7.03-.34,10.52-.12.6-1.35,1.83-1.95,1.88-.64.04-1.27.15-1.91.16-2.56.03-5.12.04-7.68.04-12.8,0-25.6,0-38.4,0-48.95,0-97.91,0-146.86,0-3.19,0-6.39-.13-9.58-.21-1.15-.03-2.4-1.33-2.46-2.49-.05-.96-.18-1.91-.19-2.86-.03-2.88-.02-5.76-.02-8.64,0-152.3,0-304.59,0-456.89Z"/>
    </g>
  </g>
</svg>